<svg width="491" height="491" viewBox="0 0 491 491" fill="none" xmlns="http://www.w3.org/2000/svg">
<g id="swipe" clip-path="url(#clip0)">
<g id="Group">
<g id="Group_2">
<path id="Vector" d="M437.328 42.651H309.328C303.44 42.651 298.661 47.43 298.661 53.318C298.661 59.206 303.44 63.985 309.328 63.985H437.328C443.216 63.985 447.995 59.206 447.995 53.318C447.995 47.43 443.216 42.651 437.328 42.651Z" fill="black"/>
</g>
</g>
<g id="Group_3">
<g id="Group_4">
<path id="Vector_2" d="M444.88 45.787L402.213 3.12C398.053 -1.04 391.29 -1.04 387.13 3.12C382.97 7.28 382.97 14.043 387.13 18.203L422.245 53.318L387.109 88.454C382.949 92.614 382.949 99.377 387.109 103.537C389.2 105.606 391.93 106.652 394.661 106.652C397.392 106.652 400.122 105.607 402.213 103.537L444.88 60.87C449.04 56.709 449.04 49.947 444.88 45.787Z" fill="black"/>
</g>
</g>
<g id="Group_5">
<g id="Group_6">
<path id="Vector_3" d="M159.995 42.651H31.995C26.107 42.651 21.328 47.43 21.328 53.318C21.328 59.206 26.107 63.985 31.995 63.985H159.995C165.883 63.985 170.662 59.206 170.662 53.318C170.662 47.43 165.883 42.651 159.995 42.651Z" fill="black"/>
</g>
</g>
<g id="Group_7">
<g id="Group_8">
<path id="Vector_4" d="M47.077 53.317L82.192 18.202C86.352 14.042 86.352 7.27899 82.192 3.11899C78.032 -1.04101 71.269 -1.04101 67.109 3.11899L24.443 45.787C20.283 49.947 20.283 56.71 24.443 60.87L67.11 103.537C69.201 105.606 71.931 106.652 74.662 106.652C77.393 106.652 80.123 105.607 82.193 103.516C86.353 99.356 86.353 92.593 82.193 88.433L47.077 53.317Z" fill="black"/>
</g>
</g>
<g id="hand">
<g id="Group_9">
<path id="Vector_5" d="M426.661 213.317C417.893 213.317 409.722 215.984 402.938 220.528C397.093 203.931 381.242 191.984 362.661 191.984C353.893 191.984 345.722 194.651 338.938 199.195C333.093 182.598 317.242 170.651 298.661 170.651C290.896 170.651 283.6 172.742 277.328 176.39V106.651C277.328 83.12 258.192 63.984 234.661 63.984C211.13 63.984 191.994 83.12 191.994 106.651V287.984L154.917 260.187C132.944 243.696 101.669 245.894 82.192 265.35C69.712 277.83 69.712 298.118 82.192 310.598L234.107 462.534C252.24 480.667 276.368 490.651 302.011 490.651H351.995C416.678 490.651 469.328 438.022 469.328 373.318V255.984C469.328 232.453 450.192 213.317 426.661 213.317ZM447.995 373.317C447.995 426.245 404.923 469.317 351.995 469.317H302.011C282.043 469.317 263.291 461.552 249.19 447.45L97.275 295.515C93.115 291.355 93.115 284.592 97.275 280.432C103.888 273.84 112.72 270.448 121.595 270.448C128.806 270.448 136.059 272.688 142.139 277.253L196.262 317.85C199.505 320.282 203.857 320.645 207.441 318.853C211.046 317.04 213.329 313.349 213.329 309.317V106.651C213.329 94.896 222.886 85.318 234.662 85.318C246.438 85.318 255.995 94.897 255.995 106.651V266.651C255.995 272.539 260.774 277.318 266.662 277.318C272.55 277.318 277.329 272.539 277.329 266.651V213.318C277.329 201.563 286.886 191.985 298.662 191.985C310.438 191.985 319.995 201.564 319.995 213.318V266.651C319.995 272.539 324.774 277.318 330.662 277.318C336.55 277.318 341.329 272.539 341.329 266.651V234.651C341.329 222.896 350.886 213.318 362.662 213.318C374.438 213.318 383.995 222.897 383.995 234.651V266.651C383.995 272.539 388.774 277.318 394.662 277.318C400.55 277.318 405.329 272.539 405.329 266.651V255.984C405.329 244.229 414.886 234.651 426.662 234.651C438.438 234.651 447.995 244.23 447.995 255.984V373.317V373.317Z" fill="black"/>
</g>
</g>
</g>
<defs>
<clipPath id="clip0">
<rect width="490.651" height="490.651" fill="white"/>
</clipPath>
</defs>
</svg>
